<svg width="51" height="51" viewBox="0 0 51 51" fill="none" xmlns="http://www.w3.org/2000/svg">
<g clip-path="url(#clip0_1_801)">
<path d="M50.0864 25.1588C50.0864 11.5641 39.0317 0.543457 25.395 0.543457C11.7584 0.543457 0.703674 11.5641 0.703674 25.1588C0.703674 38.7535 11.7584 49.7742 25.395 49.7742C39.0317 49.7742 50.0864 38.7535 50.0864 25.1588Z" fill="#FFC960"/>
<path d="M36.0747 20.4913C35.8539 20.3076 35.5858 20.1894 35.3009 20.1503C35.016 20.1112 34.7258 20.1527 34.4635 20.2701L29.5846 22.4319L26.7439 17.3344C26.6103 17.0945 26.4147 16.8947 26.1775 16.7555C25.9403 16.6164 25.6702 16.543 25.395 16.543C25.1197 16.543 24.8495 16.6164 24.6123 16.7555C24.3751 16.8947 24.1796 17.0945 24.046 17.3344L21.2051 22.4318L16.3256 20.2697C16.063 20.1534 15.7731 20.1125 15.4885 20.1516C15.2039 20.1907 14.9358 20.3081 14.7146 20.4908C14.4933 20.6735 14.3277 20.9141 14.2361 21.1856C14.1446 21.4571 14.1309 21.7487 14.1966 22.0275L16.6508 32.4441C16.6975 32.6458 16.7849 32.8358 16.9078 33.0027C17.0307 33.1695 17.1863 33.3097 17.3653 33.4145C17.5453 33.52 17.7446 33.5886 17.9517 33.6158C18.1586 33.6431 18.369 33.6287 18.5703 33.5733C23.035 32.3445 27.7501 32.344 32.215 33.572C32.4162 33.6273 32.6265 33.6417 32.8335 33.6144C33.0403 33.5871 33.2396 33.5187 33.4195 33.4132C33.5983 33.3084 33.754 33.1684 33.8769 33.0017C33.9997 32.835 34.0872 32.6451 34.134 32.4436L36.5924 22.0284C36.6593 21.7495 36.6463 21.4575 36.5547 21.1857C36.4632 20.914 36.2968 20.6734 36.0747 20.4913ZM29.2487 29.047C29.2382 29.1476 29.208 29.245 29.1597 29.3339C29.1113 29.4227 29.046 29.5012 28.9672 29.5647C28.8884 29.6284 28.7978 29.6758 28.7006 29.7044C28.6034 29.7331 28.5014 29.7424 28.4007 29.7316C26.4024 29.5224 24.3875 29.5224 22.3892 29.7316C22.1861 29.7522 21.9831 29.6917 21.8246 29.5634C21.6662 29.435 21.5652 29.2493 21.5438 29.0468C21.5224 28.8444 21.5825 28.6417 21.7106 28.4834C21.8389 28.3249 22.0248 28.2236 22.2278 28.2016C24.3335 27.9811 26.4564 27.9811 28.5621 28.2016C28.6629 28.2122 28.7605 28.2424 28.8496 28.2906C28.9386 28.3388 29.0173 28.404 29.0811 28.4826C29.1448 28.561 29.1925 28.6514 29.2212 28.7482C29.25 28.845 29.2593 28.9466 29.2487 29.047Z" fill="#543700"/>
</g>
<defs>
<clipPath id="clip0_1_801">
<rect width="49.3827" height="50" fill="white" transform="translate(0.703674 0.34375)"/>
</clipPath>
</defs>
</svg>
