<svg width="201" height="28" viewBox="0 0 201 28" fill="none" xmlns="http://www.w3.org/2000/svg">
<path d="M1.47359 24V5.47422H8.9889C10.2497 5.47422 11.363 5.69802 12.329 6.14563C13.3114 6.59323 14.081 7.25634 14.6376 8.13497C15.1944 9.0136 15.4727 10.0994 15.4727 11.3925C15.4727 12.6524 15.1862 13.7217 14.6131 14.6003C14.0564 15.479 13.2868 16.1504 12.3045 16.6146C11.3385 17.0622 10.2333 17.286 8.9889 17.286H5.28036V24H1.47359ZM5.28036 13.9289H9.01345C9.81574 13.9289 10.4543 13.6968 10.9291 13.2327C11.4203 12.7685 11.6659 12.1551 11.6659 11.3925C11.6659 10.6134 11.4203 9.99169 10.9291 9.52751C10.4543 9.06333 9.81574 8.83124 9.01345 8.83124H5.28036V13.9289ZM23.0308 24.2984C21.7046 24.2984 20.4929 23.9917 19.3959 23.3783C18.3153 22.7649 17.4557 21.9278 16.8172 20.8668C16.1786 19.7892 15.8594 18.5707 15.8594 17.2114C15.8594 15.8354 16.1786 14.6169 16.8172 13.5559C17.4557 12.495 18.3153 11.6578 19.3959 11.0444C20.4929 10.431 21.7046 10.1243 23.0308 10.1243C24.357 10.1243 25.5604 10.431 26.6411 11.0444C27.7381 11.6578 28.6058 12.495 29.2444 13.5559C29.883 14.6169 30.2023 15.8354 30.2023 17.2114C30.2023 18.5707 29.883 19.7892 29.2444 20.8668C28.6058 21.9278 27.7381 22.7649 26.6411 23.3783C25.5604 23.9917 24.357 24.2984 23.0308 24.2984ZM23.0308 20.9414C24.0459 20.9414 24.8564 20.5932 25.4622 19.897C26.0843 19.2007 26.3955 18.3055 26.3955 17.2114C26.3955 16.1338 26.0843 15.2469 25.4622 14.5506C24.8564 13.8378 24.0459 13.4813 23.0308 13.4813C22.032 13.4813 21.2215 13.8378 20.5993 14.5506C19.9772 15.2469 19.6661 16.1338 19.6661 17.2114C19.6661 18.3055 19.9772 19.2007 20.5993 19.897C21.2215 20.5932 22.032 20.9414 23.0308 20.9414ZM31.6764 24V10.4227H35.1148V12.4618C35.4587 11.6163 35.9416 11.0444 36.5639 10.746C37.2024 10.431 37.931 10.2735 38.7496 10.2735H40.1495V13.5062H38.3812C37.4807 13.5062 36.7521 13.788 36.1955 14.3517C35.6387 14.8987 35.3604 15.6779 35.3604 16.6892V24H31.6764ZM48.2986 24.1492C46.6776 24.1492 45.4169 23.7099 44.5164 22.8313C43.6322 21.9361 43.1901 20.6927 43.1901 19.1012V13.6554H40.8816V10.4227H41.0534C42.4779 10.4227 43.1901 9.72645 43.1901 8.3339V6.34456H46.8742V10.4227H50.0178V13.6554H46.8742V19.1012C46.8742 20.4772 47.6355 21.1652 49.1582 21.1652C49.3875 21.1652 49.674 21.1403 50.0178 21.0906V24.0249C49.4774 24.1078 48.9044 24.1492 48.2986 24.1492ZM52.5559 24V13.6554H50.2718V10.4227H52.5559V10.0248C52.5559 8.41679 53.0225 7.17345 53.9558 6.29483C54.8891 5.4162 56.1907 4.97688 57.8608 4.97688C58.352 4.97688 58.7859 5.01833 59.1625 5.10122V8.28417C58.8514 8.23444 58.5812 8.20957 58.352 8.20957C56.9439 8.20957 56.2399 8.81466 56.2399 10.0248V10.4227H59.138V13.6554H56.2399V24H52.5559ZM66.5871 24.2984C65.2608 24.2984 64.0492 23.9917 62.9522 23.3783C61.8715 22.7649 61.012 21.9278 60.3734 20.8668C59.7348 19.7892 59.4156 18.5707 59.4156 17.2114C59.4156 15.8354 59.7348 14.6169 60.3734 13.5559C61.012 12.495 61.8715 11.6578 62.9522 11.0444C64.0492 10.431 65.2608 10.1243 66.5871 10.1243C67.9133 10.1243 69.1167 10.431 70.1973 11.0444C71.2943 11.6578 72.1621 12.495 72.8007 13.5559C73.4392 14.6169 73.7585 15.8354 73.7585 17.2114C73.7585 18.5707 73.4392 19.7892 72.8007 20.8668C72.1621 21.9278 71.2943 22.7649 70.1973 23.3783C69.1167 23.9917 67.9133 24.2984 66.5871 24.2984ZM66.5871 20.9414C67.6022 20.9414 68.4126 20.5932 69.0185 19.897C69.6407 19.2007 69.9517 18.3055 69.9517 17.2114C69.9517 16.1338 69.6407 15.2469 69.0185 14.5506C68.4126 13.8378 67.6022 13.4813 66.5871 13.4813C65.5882 13.4813 64.7778 13.8378 64.1557 14.5506C63.5334 15.2469 63.2223 16.1338 63.2223 17.2114C63.2223 18.3055 63.5334 19.2007 64.1557 19.897C64.7778 20.5932 65.5882 20.9414 66.5871 20.9414ZM75.2327 24V5.47422H78.9166V24H75.2327ZM81.127 9.20424V5.47422H84.811V9.20424H81.127ZM81.127 24V10.4227H84.811V24H81.127ZM93.4561 24.2984C92.1298 24.2984 90.9182 23.9917 89.8212 23.3783C88.7405 22.7649 87.881 21.9278 87.2424 20.8668C86.6039 19.7892 86.2845 18.5707 86.2845 17.2114C86.2845 15.8354 86.6039 14.6169 87.2424 13.5559C87.881 12.495 88.7405 11.6578 89.8212 11.0444C90.9182 10.431 92.1298 10.1243 93.4561 10.1243C94.7823 10.1243 95.9857 10.431 97.0664 11.0444C98.1634 11.6578 99.0311 12.495 99.6701 13.5559C100.308 14.6169 100.627 15.8354 100.627 17.2114C100.627 18.5707 100.308 19.7892 99.6701 20.8668C99.0311 21.9278 98.1634 22.7649 97.0664 23.3783C95.9857 23.9917 94.7823 24.2984 93.4561 24.2984ZM93.4561 20.9414C94.4712 20.9414 95.2817 20.5932 95.8875 19.897C96.5096 19.2007 96.8207 18.3055 96.8207 17.2114C96.8207 16.1338 96.5096 15.2469 95.8875 14.5506C95.2817 13.8378 94.4712 13.4813 93.4561 13.4813C92.4573 13.4813 91.6468 13.8378 91.0246 14.5506C90.4025 15.2469 90.0914 16.1338 90.0914 17.2114C90.0914 18.3055 90.4025 19.2007 91.0246 19.897C91.6468 20.5932 92.4573 20.9414 93.4561 20.9414ZM115.135 24.2984C113.825 24.2984 112.605 24.058 111.476 23.5773C110.362 23.0965 109.389 22.4251 108.553 21.5631C107.719 20.701 107.064 19.6898 106.589 18.5293C106.13 17.3688 105.901 16.1006 105.901 14.7247C105.901 13.3487 106.13 12.0805 106.589 10.9201C107.047 9.74303 107.694 8.73178 108.528 7.8863C109.364 7.02425 110.338 6.36114 111.451 5.89696C112.581 5.4162 113.809 5.17582 115.135 5.17582C116.461 5.17582 117.648 5.39962 118.696 5.84722C119.761 6.29483 120.661 6.89163 121.399 7.63763C122.135 8.38364 122.659 9.21253 122.97 10.1243L119.605 11.7655C119.294 10.8703 118.746 10.1326 117.96 9.55238C117.19 8.95558 116.249 8.65717 115.135 8.65717C114.054 8.65717 113.105 8.91413 112.286 9.42805C111.468 9.94196 110.829 10.6548 110.37 11.5666C109.929 12.4618 109.708 13.5145 109.708 14.7247C109.708 15.9349 109.929 16.9958 110.37 17.9076C110.829 18.8194 111.468 19.5323 112.286 20.0462C113.105 20.5601 114.054 20.817 115.135 20.817C116.249 20.817 117.19 20.5269 117.96 19.9467C118.746 19.3499 119.294 18.6039 119.605 17.7087L122.97 19.3499C122.659 20.2617 122.135 21.0906 121.399 21.8366C120.661 22.5826 119.761 23.1794 118.696 23.627C117.648 24.0746 116.461 24.2984 115.135 24.2984ZM124.683 24V10.4227H128.121V12.4618C128.465 11.6163 128.948 11.0444 129.57 10.746C130.209 10.431 130.938 10.2735 131.756 10.2735H133.157V13.5062H131.388C130.488 13.5062 129.759 13.788 129.202 14.3517C128.646 14.8987 128.367 15.6779 128.367 16.6892V24H124.683ZM140.679 24.2984C139.27 24.2984 138.035 23.9834 136.97 23.3535C135.922 22.7069 135.103 21.8449 134.514 20.7673C133.941 19.6898 133.654 18.4961 133.654 17.1865C133.654 15.8271 133.949 14.6169 134.538 13.5559C135.145 12.495 135.955 11.6578 136.97 11.0444C138.001 10.431 139.156 10.1243 140.433 10.1243C141.694 10.1243 142.824 10.4227 143.822 11.0195C144.821 11.6163 145.615 12.4204 146.204 13.4316C146.794 14.4263 147.088 15.5536 147.088 16.8135C147.088 17.0787 147.073 17.344 147.039 17.6092C147.023 17.8579 146.982 18.0734 146.917 18.2558H137.485C137.6 19.1012 137.944 19.7809 138.518 20.2948C139.09 20.8088 139.827 21.0657 140.728 21.0657C141.383 21.0657 141.939 20.9331 142.398 20.6678C142.872 20.4026 143.24 20.0379 143.503 19.5737L146.45 20.9911C146.04 21.9858 145.32 22.7898 144.288 23.4032C143.257 24 142.053 24.2984 140.679 24.2984ZM140.433 13.1083C139.713 13.1083 139.098 13.3156 138.591 13.73C138.083 14.1445 137.739 14.7413 137.56 15.5204H143.183C143.118 14.791 142.832 14.2108 142.324 13.7797C141.833 13.3321 141.202 13.1083 140.433 13.1083ZM152.544 24.2984C151.529 24.2984 150.645 24.1243 149.892 23.7762C149.156 23.4115 148.582 22.9307 148.173 22.3339C147.78 21.7205 147.583 21.0408 147.583 20.2948C147.583 19.2836 147.96 18.4547 148.713 17.8082C149.467 17.145 150.522 16.6726 151.881 16.3908L156.081 15.4955V15.0479C156.081 14.534 155.892 14.1279 155.516 13.8295C155.14 13.5145 154.64 13.357 154.018 13.357C153.363 13.357 152.782 13.5394 152.275 13.9041C151.783 14.2522 151.439 14.733 151.242 15.3463L148.075 13.8046C148.467 12.6773 149.196 11.7821 150.261 11.119C151.341 10.4559 152.594 10.1243 154.018 10.1243C155.164 10.1243 156.163 10.3315 157.014 10.746C157.882 11.1604 158.553 11.7407 159.028 12.4867C159.519 13.2161 159.765 14.0699 159.765 15.0479V24H156.327V22.7567C155.819 23.3037 155.254 23.7016 154.632 23.9503C154.027 24.1824 153.33 24.2984 152.544 24.2984ZM151.391 20.2451C151.391 20.6596 151.546 20.9828 151.857 21.2149C152.168 21.447 152.586 21.5631 153.109 21.5631C153.945 21.5631 154.649 21.2978 155.222 20.7673C155.795 20.2368 156.081 19.5903 156.081 18.8277V18.1812L152.544 18.9769C151.775 19.1593 151.391 19.582 151.391 20.2451ZM167.916 24.1492C166.295 24.1492 165.035 23.7099 164.134 22.8313C163.25 21.9361 162.808 20.6927 162.808 19.1012V13.6554H160.5V10.4227H160.672C162.096 10.4227 162.808 9.72645 162.808 8.3339V6.34456H166.492V10.4227H169.636V13.6554H166.492V19.1012C166.492 20.4772 167.253 21.1652 168.776 21.1652C169.005 21.1652 169.292 21.1403 169.636 21.0906V24.0249C169.095 24.1078 168.522 24.1492 167.916 24.1492ZM177.553 24.2984C176.226 24.2984 175.014 23.9917 173.917 23.3783C172.837 22.7649 171.977 21.9278 171.338 20.8668C170.7 19.7892 170.381 18.5707 170.381 17.2114C170.381 15.8354 170.7 14.6169 171.338 13.5559C171.977 12.495 172.837 11.6578 173.917 11.0444C175.014 10.431 176.226 10.1243 177.553 10.1243C178.879 10.1243 180.082 10.431 181.162 11.0444C182.26 11.6578 183.128 12.495 183.766 13.5559C184.405 14.6169 184.724 15.8354 184.724 17.2114C184.724 18.5707 184.405 19.7892 183.766 20.8668C183.128 21.9278 182.26 22.7649 181.162 23.3783C180.082 23.9917 178.879 24.2984 177.553 24.2984ZM177.553 20.9414C178.568 20.9414 179.378 20.5932 179.984 19.897C180.606 19.2007 180.917 18.3055 180.917 17.2114C180.917 16.1338 180.606 15.2469 179.984 14.5506C179.378 13.8378 178.568 13.4813 177.553 13.4813C176.553 13.4813 175.743 13.8378 175.121 14.5506C174.499 15.2469 174.188 16.1338 174.188 17.2114C174.188 18.3055 174.499 19.2007 175.121 19.897C175.743 20.5932 176.553 20.9414 177.553 20.9414ZM186.198 24V10.4227H189.637V12.4618C189.98 11.6163 190.463 11.0444 191.085 10.746C191.723 10.431 192.452 10.2735 193.271 10.2735H194.671V13.5062H192.903C192.002 13.5062 191.274 13.788 190.717 14.3517C190.16 14.8987 189.881 15.6779 189.881 16.6892V24H186.198Z" fill="black"/>
<path d="M194.809 24V20.27H198.493V24H194.809Z" fill="url(#paint0_linear_1_447)"/>
<defs>
<linearGradient id="paint0_linear_1_447" x1="192.603" y1="20.5372" x2="199.69" y2="20.5304" gradientUnits="userSpaceOnUse">
<stop offset="0.197917" stop-color="#B16CEA"/>
<stop offset="0.557292" stop-color="#FF5E69"/>
<stop offset="0.828125" stop-color="#FF8A56"/>
<stop offset="1" stop-color="#FFA84B"/>
</linearGradient>
</defs>
</svg>
