<svg width="51" height="51" viewBox="0 0 51 51" fill="none" xmlns="http://www.w3.org/2000/svg">
<g clip-path="url(#clip0_1_786)">
<path d="M50.0864 25.1679C50.0864 11.5732 39.0317 0.55249 25.395 0.55249C11.7584 0.55249 0.703674 11.5732 0.703674 25.1679C0.703674 38.7626 11.7584 49.7833 25.395 49.7833C39.0317 49.7833 50.0864 38.7626 50.0864 25.1679Z" fill="#A5BEFF"/>
<path d="M33.3328 18.0684L25.6167 15.7607C25.5015 15.7263 25.3798 15.7191 25.2614 15.7399C25.1429 15.7607 25.0309 15.8087 24.9344 15.8804C24.8379 15.952 24.7595 16.045 24.7055 16.1522C24.6515 16.2594 24.6234 16.3776 24.6234 16.4975V21.0956C24.6231 21.1074 24.6231 21.119 24.6234 21.1308V26.9073C23.8335 26.2033 22.8252 25.7909 21.767 25.739C20.7088 25.687 19.6647 25.9987 18.8093 26.622C17.9539 27.2452 17.3389 28.1422 17.0673 29.1631C16.7955 30.184 16.8835 31.267 17.3164 32.231C17.7493 33.1951 18.501 33.9818 19.4458 34.4598C20.3906 34.9377 21.4714 35.078 22.5075 34.857C23.5436 34.636 24.4721 34.0673 25.1382 33.2458C25.8041 32.4244 26.1672 31.3999 26.1666 30.3437V22.1467L32.8893 24.1574C33.0045 24.1918 33.1263 24.199 33.2447 24.1782C33.3632 24.1574 33.4751 24.1094 33.5717 24.0377C33.6682 23.9661 33.7466 23.873 33.8006 23.7659C33.8545 23.6587 33.8827 23.5405 33.8827 23.4206V18.8052C33.8827 18.6397 33.8292 18.4787 33.7301 18.346C33.6311 18.2133 33.4917 18.116 33.3328 18.0684Z" fill="#0033B6"/>
</g>
<defs>
<clipPath id="clip0_1_786">
<rect width="49.3827" height="50" fill="white" transform="translate(0.703674 0.34375)"/>
</clipPath>
</defs>
</svg>
