<svg width="70" height="71" viewBox="0 0 70 71" fill="none" xmlns="http://www.w3.org/2000/svg">
<g clip-path="url(#clip0_1_497)">
<path d="M35.339 70.0949C26.7405 70.0949 18.4941 66.4165 12.4141 59.8687C6.33398 53.3209 2.91823 44.4403 2.91823 35.1803C2.91823 25.9203 6.33398 17.0397 12.4141 10.4919C18.4941 3.94413 26.7405 0.265626 35.339 0.265625V35.1803V70.0949Z" fill="url(#paint0_linear_1_497)"/>
<path d="M53.8178 52.559C49.5379 52.559 45.4333 50.728 42.407 47.4689C39.3806 44.2097 37.6805 39.7894 37.6805 35.1804C37.6805 30.5713 39.3806 26.1509 42.407 22.8918C45.4333 19.6326 49.5379 17.8016 53.8178 17.8016V35.1804V52.559Z" fill="url(#paint1_linear_1_497)"/>
<path d="M32.4208 70.0949C23.8223 70.0949 15.5759 66.4165 9.49583 59.8687C3.41576 53.3209 1.55321e-05 44.4403 1.52588e-05 35.1803C1.49855e-05 25.9203 3.41576 17.0397 9.49583 10.4919C15.5759 3.94413 23.8223 0.265626 32.4208 0.265625V35.1803V70.0949Z" fill="black"/>
<path d="M50.8996 52.559C46.6197 52.559 42.5151 50.728 39.4888 47.4689C36.4624 44.2097 34.7622 39.7894 34.7622 35.1804C34.7622 30.5713 36.4624 26.1509 39.4888 22.8918C42.5151 19.6326 46.6197 17.8016 50.8996 17.8016V35.1804V52.559Z" fill="black"/>
</g>
<defs>
<linearGradient id="paint0_linear_1_497" x1="19.1286" y1="-5.57493" x2="19.3955" y2="62.3792" gradientUnits="userSpaceOnUse">
<stop offset="0.197917" stop-color="#B16CEA"/>
<stop offset="0.557292" stop-color="#FF5E69"/>
<stop offset="0.828125" stop-color="#FF8A56"/>
<stop offset="1" stop-color="#FFA84B"/>
</linearGradient>
<linearGradient id="paint1_linear_1_497" x1="45.7491" y1="14.8946" x2="45.8819" y2="48.7185" gradientUnits="userSpaceOnUse">
<stop offset="0.197917" stop-color="#B16CEA"/>
<stop offset="0.557292" stop-color="#FF5E69"/>
<stop offset="0.828125" stop-color="#FF8A56"/>
<stop offset="1" stop-color="#FFA84B"/>
</linearGradient>
<clipPath id="clip0_1_497">
<rect width="70" height="70" fill="white" transform="translate(0 0.265625)"/>
</clipPath>
</defs>
</svg>
