<svg width="71" height="71" viewBox="0 0 71 71" fill="none" xmlns="http://www.w3.org/2000/svg">
<g clip-path="url(#clip0_1_533)">
<path d="M69.5957 36.7466C69.5957 45.598 66.1305 54.0869 59.9622 60.3457C53.7941 66.6047 45.4282 70.1209 36.7051 70.1209C27.982 70.1209 19.6161 66.6047 13.4479 60.3457C7.27971 54.0869 3.81445 45.598 3.81445 36.7466H36.7051H69.5957Z" fill="url(#paint0_linear_1_533)"/>
<path d="M36.705 31.6556C42.9552 31.6556 48.022 26.5143 48.022 20.1722C48.022 13.8301 42.9552 8.68884 36.705 8.68884C30.4548 8.68884 25.3881 13.8301 25.3881 20.1722C25.3881 26.5143 30.4548 31.6556 36.705 31.6556Z" fill="url(#paint1_linear_1_533)"/>
<path d="M66.355 33.64C66.355 42.4914 62.8898 50.9803 56.7216 57.2392C50.5534 63.4981 42.1876 67.0143 33.4645 67.0143C24.7412 67.0143 16.3754 63.4981 10.2072 57.2392C4.03905 50.9803 0.573793 42.4914 0.573792 33.64H33.4645H66.355Z" fill="black"/>
<path d="M33.4644 28.5491C39.7146 28.5491 44.7813 23.4078 44.7813 17.0657C44.7813 10.7236 39.7146 5.58228 33.4644 5.58228C27.2142 5.58228 22.1474 10.7236 22.1474 17.0657C22.1474 23.4078 27.2142 28.5491 33.4644 28.5491Z" fill="black"/>
</g>
<defs>
<linearGradient id="paint0_linear_1_533" x1="-1.68752" y1="53.4338" x2="62.3273" y2="53.2037" gradientUnits="userSpaceOnUse">
<stop offset="0.197917" stop-color="#B16CEA"/>
<stop offset="0.557292" stop-color="#FF5E69"/>
<stop offset="0.828125" stop-color="#FF8A56"/>
<stop offset="1" stop-color="#FFA84B"/>
</linearGradient>
<linearGradient id="paint1_linear_1_533" x1="17.5846" y1="17.5828" x2="44.4113" y2="15.5365" gradientUnits="userSpaceOnUse">
<stop offset="0.197917" stop-color="#B16CEA"/>
<stop offset="0.557292" stop-color="#FF5E69"/>
<stop offset="0.828125" stop-color="#FF8A56"/>
<stop offset="1" stop-color="#FFA84B"/>
</linearGradient>
<clipPath id="clip0_1_533">
<rect width="70" height="70" fill="white" transform="translate(0.573792 0.265625)"/>
</clipPath>
</defs>
</svg>
