<svg width="51" height="51" viewBox="0 0 51 51" fill="none" xmlns="http://www.w3.org/2000/svg">
<g clip-path="url(#clip0_1_770)">
<path d="M50.0864 25.3438C50.0864 11.5366 39.0317 0.34375 25.395 0.34375C11.7584 0.34375 0.703674 11.5366 0.703674 25.3438C0.703674 39.1509 11.7584 50.3438 25.395 50.3438C39.0317 50.3438 50.0864 39.1509 50.0864 25.3438Z" fill="#FFB4E9"/>
<path d="M26.9382 33.9375H23.8518C23.6472 33.9375 23.4509 34.0198 23.3062 34.1663C23.1615 34.3128 23.0802 34.5116 23.0802 34.7188C23.0802 34.9259 23.1615 35.1247 23.3062 35.2712C23.4509 35.4177 23.6472 35.5 23.8518 35.5H26.9382C27.1429 35.5 27.3392 35.4177 27.4838 35.2712C27.6285 35.1247 27.7098 34.9259 27.7098 34.7188C27.7098 34.5116 27.6285 34.3128 27.4838 34.1663C27.3392 34.0198 27.1429 33.9375 26.9382 33.9375Z" fill="#D10094"/>
<path d="M34.2327 26.8922L31.3163 23.3489C31.2231 22.1817 30.9639 21.0343 30.5467 19.9422C29.4261 16.9918 27.4451 15.0596 26.364 14.1703C26.0899 13.9468 25.7488 13.8244 25.3969 13.8233C25.045 13.8221 24.7031 13.9422 24.4275 14.1637C23.3322 15.0521 21.3258 16.983 20.194 19.9338C19.7629 21.0506 19.4996 22.2266 19.413 23.4225L16.5573 26.8922C16.4069 27.0761 16.2998 27.2923 16.2442 27.5243C16.1886 27.7564 16.1859 27.9982 16.2363 28.2315L17.4288 33.6643C17.4853 33.9236 17.6062 34.164 17.78 34.3627C17.9538 34.5615 18.1748 34.7121 18.4221 34.8003C18.6694 34.8885 18.9348 34.9114 19.1933 34.8668C19.4518 34.8222 19.6947 34.7116 19.8992 34.5455L22.5792 32.3747H28.2108L30.8907 34.5455C31.1631 34.7675 31.5021 34.8886 31.8518 34.889C32.0275 34.8888 32.2019 34.8584 32.3675 34.7992C32.6151 34.7118 32.8365 34.5616 33.0105 34.3629C33.1844 34.1643 33.3052 33.9238 33.3612 33.6644L34.5537 28.2315C34.6041 27.9983 34.6015 27.7565 34.5458 27.5243C34.4902 27.2923 34.3831 27.0761 34.2327 26.8922ZM18.9352 33.3254L17.7428 27.8925L19.4718 25.7917C19.691 27.617 20.3064 29.485 21.318 31.3954L18.9352 33.3254ZM25.395 23.3904C25.1661 23.3904 24.9423 23.3216 24.752 23.1929C24.5616 23.0641 24.4133 22.8811 24.3257 22.6669C24.2381 22.4528 24.2152 22.2172 24.2599 21.9899C24.3045 21.7625 24.4147 21.5537 24.5766 21.3899C24.7385 21.226 24.9447 21.1143 25.1692 21.0691C25.3937 21.024 25.6265 21.0472 25.8379 21.1358C26.0494 21.2245 26.2302 21.3747 26.3573 21.5675C26.4846 21.7601 26.5524 21.9867 26.5524 22.2185C26.5524 22.5293 26.4305 22.8274 26.2134 23.0472C25.9964 23.2669 25.702 23.3904 25.395 23.3904ZM31.8548 33.3254L29.4677 31.3918C30.4663 29.4679 31.0688 27.5839 31.2754 25.7398L33.0472 27.8925L31.8548 33.3254Z" fill="#D10094"/>
</g>
<defs>
<clipPath id="clip0_1_770">
<rect width="49.3827" height="50" fill="white" transform="translate(0.703674 0.34375)"/>
</clipPath>
</defs>
</svg>
